[h264 @ 0x55ec9e7ae0c0] Reinit context to 1920x1088, pix_fmt: yuv420p
Input #0, mov,mp4,m4a,3gp,3g2,mj2, from '/var/www/html/project/media/video/original/1000106912.mp4':
  Metadata:
    major_brand     : mp42
    minor_version   : 0
    compatible_brands: isommp42
    creation_time   : 2024-10-04T14:30:45.000000Z
    com.android.version: 14
  Duration: 00:01:19.68, start: 0.000000, bitrate: 12132 kb/s
    Stream #0:0(eng): Video: h264 (High), 1 reference frame (avc1 / 0x31637661), yuv420p(tv, bt709, left), 1920x1080 (1920x1088), 12002 kb/s, 30 fps, 30 tbr, 90k tbn, 180k tbc (default)
    Metadata:
      creation_time   : 2024-10-04T14:30:45.000000Z
      handler_name    : VideoHandle
    Stream #0:1(eng): Audio: aac (LC) (mp4a / 0x6134706D), 48000 Hz, stereo, fltp, 128 kb/s (default)
    Metadata:
      creation_time   : 2024-10-04T14:30:45.000000Z
      handler_name    : SoundHandle
Input #1, png_pipe, from '/var/www/html/project/static/images/templates/logo.png':
  Duration: N/A, bitrate: N/A
    Stream #1:0: Video: png, 1 reference frame, rgba(pc), 1920x1080 [SAR 2835:2835 DAR 16:9], 25 tbr, 25 tbn, 25 tbc
[h264 @ 0x55ec9e7cd640] Reinit context to 1280x720, pix_fmt: yuv420p
Input #2, mov,mp4,m4a,3gp,3g2,mj2, from '/var/www/html/project/static/images/templates/Codino.mp4':
  Metadata:
    major_brand     : mp42
    minor_version   : 1
    compatible_brands: isommp41mp42
    creation_time   : 2021-07-11T07:02:58.000000Z
  Duration: 00:00:02.00, start: 0.000000, bitrate: 1007 kb/s
    Stream #2:0(ita): Audio: aac (LC) (mp4a / 0x6134706D), 44100 Hz, stereo, fltp, 102 kb/s (default)
    Metadata:
      creation_time   : 2021-07-11T07:02:58.000000Z
      handler_name    : Core Media Audio
    Stream #2:1(und): Video: h264 (High), 1 reference frame (avc1 / 0x31637661), yuv420p(tv, bt709, progressive, left), 1280x720 [SAR 1:1 DAR 16:9], 813 kb/s, 25 fps, 25 tbr, 25k tbn, 50k tbc (default)
    Metadata:
      creation_time   : 2021-07-11T07:02:58.000000Z
      handler_name    : Core Media Video
[Parsed_scale_0 @ 0x55ec9e853280] w:1280 h:720 flags:'bilinear' interl:0
[Parsed_scale_2 @ 0x55ec9e852ec0] w:1280 h:720 flags:'bilinear' interl:0
[Parsed_scale_4 @ 0x55ec9e855540] w:1280 h:720 flags:'bilinear' interl:0
Stream mapping:
  Stream #0:0 (h264) -> scale
  Stream #0:1 (aac) -> concat:in0:a0
  Stream #1:0 (png) -> scale
  Stream #2:0 (aac) -> concat:in1:a0
  Stream #2:1 (h264) -> scale
  concat:out:v0 -> Stream #0:0 (libx264)
  concat:out:a0 -> Stream #0:1 (aac)
Press [q] to stop, [?] for help
[h264 @ 0x55ec9e987700] Reinit context to 1920x1088, pix_fmt: yuv420p
[h264 @ 0x55ec9ec77d40] Reinit context to 1280x720, pix_fmt: yuv420p
[Parsed_scale_0 @ 0x55eca0228a00] w:1280 h:720 flags:'bilinear' interl:0
[Parsed_scale_2 @ 0x55eca02290c0] w:1280 h:720 flags:'bilinear' interl:0
[Parsed_scale_4 @ 0x55eca02323c0] w:1280 h:720 flags:'bilinear' interl:0
[graph 0 input from stream 0:0 @ 0x55eca0236bc0] w:1920 h:1080 pixfmt:yuv420p tb:1/90000 fr:30/1 sar:0/1 sws_param:flags=2
[graph 0 input from stream 1:0 @ 0x55eca0237c40] w:1920 h:1080 pixfmt:rgba tb:1/25 fr:25/1 sar:2835/2835 sws_param:flags=2
[graph 0 input from stream 2:1 @ 0x55eca0238cc0] w:1280 h:720 pixfmt:yuv420p tb:1/25000 fr:25/1 sar:1/1 sws_param:flags=2
[graph_0_in_0_1 @ 0x55eca0239c80] tb:1/48000 samplefmt:fltp samplerate:48000 chlayout:0x3
[graph_0_in_2_0 @ 0x55eca023adc0] tb:1/44100 samplefmt:fltp samplerate:44100 chlayout:0x3
[Parsed_concat_7 @ 0x55eca0234c40] auto-inserting filter 'auto_resampler_0' between the filter 'graph_0_in_2_0' and the filter 'Parsed_concat_7'
[Parsed_scale_0 @ 0x55eca0228a00] w:1920 h:1080 fmt:yuv420p sar:0/1 -> w:1280 h:720 fmt:yuv420p sar:0/1 flags:0x2
[Parsed_setsar_1 @ 0x55eca0228c40] w:1280 h:720 sar:0/1 dar:16/9 -> sar:1/1 dar:16/9
[Parsed_scale_2 @ 0x55eca02290c0] w:1920 h:1080 fmt:rgba sar:2835/2835 -> w:1280 h:720 fmt:yuva420p sar:1/1 flags:0x2
[Parsed_setsar_3 @ 0x55ec9e9395c0] w:1280 h:720 sar:1/1 dar:16/9 -> sar:1/1 dar:16/9
[Parsed_overlay_6 @ 0x55eca0233b00] main w:1280 h:720 fmt:yuv420p overlay w:1280 h:720 fmt:yuva420p
[Parsed_overlay_6 @ 0x55eca0233b00] [framesync @ 0x55eca0233c68] Selected 1/90000 time base
[Parsed_overlay_6 @ 0x55eca0233b00] [framesync @ 0x55eca0233c68] Sync level 2
[Parsed_scale_4 @ 0x55eca02323c0] w:1280 h:720 fmt:yuv420p sar:1/1 -> w:1280 h:720 fmt:yuv420p sar:1/1 flags:0x2
[Parsed_setsar_5 @ 0x55eca0232f00] w:1280 h:720 sar:1/1 dar:16/9 -> sar:1/1 dar:16/9
[auto_resampler_0 @ 0x55eca0241e40] ch:2 chl:stereo fmt:fltp r:44100Hz -> ch:2 chl:stereo fmt:fltp r:48000Hz
[libx264 @ 0x55ec9e845940] using SAR=1/1
[libx264 @ 0x55ec9e845940] using cpu capabilities: MMX2 SSE2Fast SSSE3 SSE4.2 AVX FMA3 BMI2 AVX2
[libx264 @ 0x55ec9e845940] profile High, level 3.1
[libx264 @ 0x55ec9e845940] 264 - core 155 r2917 0a84d98 - H.264/MPEG-4 AVC codec - Copyleft 2003-2018 - http://www.videolan.org/x264.html - options: cabac=1 ref=1 deblock=1:0:0 analyse=0x3:0x113 me=hex subme=2 psy=1 psy_rd=1.00:0.00 mixed_ref=0 me_range=16 chroma_me=1 trellis=0 8x8dct=1 cqm=0 deadzone=21,11 fast_pskip=1 chroma_qp_offset=0 threads=22 lookahead_threads=5 sliced_threads=0 nr=0 decimate=1 interlaced=0 bluray_compat=0 constrained_intra=0 bframes=3 b_pyramid=2 b_adapt=1 b_bias=0 direct=1 weightb=1 open_gop=0 weightp=1 keyint=250 keyint_min=25 scenecut=40 intra_refresh=0 rc_lookahead=10 rc=crf mbtree=1 crf=18.0 qcomp=0.60 qpmin=0 qpmax=69 qpstep=4 ip_ratio=1.40 aq=1:1.00
Output #0, mp4, to '/var/www/html/project/media/video/watermarks/1000106912.mp4':
  Metadata:
    major_brand     : mp42
    minor_version   : 0
    compatible_brands: isommp42
    com.android.version: 14
    encoder         : Lavf58.29.100
    Stream #0:0: Video: h264 (libx264), 1 reference frame (avc1 / 0x31637661), yuv420p(progressive), 1280x720 [SAR 1:1 DAR 16:9], q=-1--1, 30 fps, 15360 tbn, 30 tbc (default)
    Metadata:
      encoder         : Lavc58.54.100 libx264
    Side data:
      cpb: bitrate max/min/avg: 0/0/0 buffer size: 0 vbv_delay: -1
    Stream #0:1: Audio: aac (LC) (mp4a / 0x6134706D), 48000 Hz, stereo, fltp, delay 1024, 128 kb/s (default)
    Metadata:
      encoder         : Lavc58.54.100 aac
[Parsed_overlay_6 @ 0x55eca0233b00] [framesync @ 0x55eca0233c68] Sync level 0
[Parsed_concat_7 @ 0x55eca0234c40] EOF on in0:v0, 1 streams left in segment.
[Parsed_concat_7 @ 0x55eca0234c40] EOF on in0:a0, 0 streams left in segment.
[Parsed_concat_7 @ 0x55eca0234c40] Segment finished at pts=79678750
[Parsed_concat_7 @ 0x55eca0234c40] EOF on in1:v0, 1 streams left in segment.
[Parsed_concat_7 @ 0x55eca0234c40] EOF on in1:a0, 0 streams left in segment.
[Parsed_concat_7 @ 0x55eca0234c40] Segment finished at pts=81697437
No more output streams to write to, finishing.
frame= 2440 fps= 66 q=-1.0 Lsize=   71629kB time=00:01:21.70 bitrate=7181.8kbits/s speed=2.21x    
[AVIOContext @ 0x55ec9e7ac440] Statistics: 0 seeks, 73 writeouts
video:70265kB audio:1275kB subtitle:0kB other streams:0kB global headers:0kB muxing overhead: 0.125604%
Input file #0 (/var/www/html/project/media/video/original/1000106912.mp4):
  Input stream #0:0 (video): 2390 packets read (119521041 bytes); 2390 frames decoded; 
  Input stream #0:1 (audio): 3735 packets read (1274881 bytes); 3735 frames decoded (3824640 samples); 
  Total: 6125 packets (120795922 bytes) demuxed
Input file #1 (/var/www/html/project/static/images/templates/logo.png):
  Input stream #1:0 (video): 1 packets read (111578 bytes); 1 frames decoded; 
  Total: 1 packets (111578 bytes) demuxed
Input file #2 (/var/www/html/project/static/images/templates/Codino.mp4):
  Input stream #2:0 (audio): 89 packets read (26579 bytes); 87 frames decoded (89024 samples); 
  Input stream #2:1 (video): 50 packets read (203365 bytes); 50 frames decoded; 
  Total: 139 packets (229944 bytes) demuxed
Output file #0 (/var/www/html/project/media/video/watermarks/1000106912.mp4):
  Output stream #0:0 (video): 2440 frames encoded; 2440 packets muxed (71951240 bytes); 
  Output stream #0:1 (audio): 3830 frames encoded (3921537 samples); 3831 packets muxed (1305312 bytes); 
  Total: 6271 packets (73256552 bytes) muxed
[AVIOContext @ 0x55ec9e853ec0] Statistics: 2 seeks, 283 writeouts
[libx264 @ 0x55ec9e845940] frame I:15    Avg QP:16.57  size: 88865
[libx264 @ 0x55ec9e845940] frame P:647   Avg QP:19.64  size: 46310
[libx264 @ 0x55ec9e845940] frame B:1778  Avg QP:21.97  size: 22866
[libx264 @ 0x55ec9e845940] consecutive B-frames:  1.9%  1.6%  3.3% 93.1%
[libx264 @ 0x55ec9e845940] mb I  I16..4: 12.9% 18.2% 68.9%
[libx264 @ 0x55ec9e845940] mb P  I16..4:  6.1% 16.4% 21.8%  P16..4: 19.1% 15.7% 12.6%  0.0%  0.0%    skip: 8.4%
[libx264 @ 0x55ec9e845940] mb B  I16..4:  1.2%  3.1%  6.3%  B16..8: 23.7% 16.5%  5.7%  direct:10.2%  skip:33.2%  L0:39.3% L1:41.5% BI:19.2%
[libx264 @ 0x55ec9e845940] 8x8 transform intra:33.6% inter:35.6%
[libx264 @ 0x55ec9e845940] coded y,uvDC,uvAC intra: 78.8% 49.7% 9.4% inter: 25.8% 15.2% 0.3%
[libx264 @ 0x55ec9e845940] i16 v,h,dc,p: 33% 46% 13%  8%
[libx264 @ 0x55ec9e845940] i8 v,h,dc,ddl,ddr,vr,hd,vl,hu: 15% 37% 13%  3%  7%  6%  9%  4%  7%
[libx264 @ 0x55ec9e845940] i4 v,h,dc,ddl,ddr,vr,hd,vl,hu: 20% 22%  9%  5% 12% 10% 11%  6%  7%
[libx264 @ 0x55ec9e845940] i8c dc,h,v,p: 54% 24% 17%  5%
[libx264 @ 0x55ec9e845940] Weighted P-Frames: Y:17.9% UV:1.2%
[libx264 @ 0x55ec9e845940] kb/s:7048.22
[aac @ 0x55ec9e985900] Qavg: 823.842
[AVIOContext @ 0x55ec9e7b53c0] Statistics: 201908667 bytes read, 4748 seeks
[AVIOContext @ 0x55ec9e7b4900] Statistics: 111578 bytes read, 0 seeks
[AVIOContext @ 0x55ec9e80d400] Statistics: 1530915 bytes read, 42 seeks
